<svg width="49" height="48" viewBox="0 0 49 48" fill="none" xmlns="http://www.w3.org/2000/svg">
<rect x="0.200195" width="48" height="48" rx="24" fill="#1B2027"/>
<path d="M24.329 28.1831C24.3674 28.1082 24.3674 27.9958 24.2906 27.9209C24.2138 27.846 24.0986 27.846 24.0218 27.9209C24.0218 27.9209 24.0218 27.9209 23.9834 27.9583C23.945 27.9958 23.9066 28.0333 23.8298 28.1082C23.6762 28.258 23.4842 28.4453 23.2154 28.7075C23.1386 28.7824 23.0618 28.8573 22.985 28.8947C22.9082 28.9697 22.8314 29.0446 22.7546 29.1195C22.601 29.2693 22.409 29.4191 22.217 29.6064C22.025 29.7937 21.7946 29.9435 21.6026 30.1308C21.3722 30.3181 21.1418 30.5054 20.873 30.6926C20.6042 30.8799 20.3354 31.0672 20.0666 31.217C19.7594 31.3669 19.4906 31.5167 19.145 31.6665C18.8378 31.7789 18.4922 31.8538 18.185 31.8913C18.0314 31.8913 17.8778 31.8913 17.7626 31.8538C17.609 31.8163 17.4938 31.7789 17.3786 31.704C17.2634 31.6291 17.1482 31.5541 17.0714 31.4418C17.033 31.3669 16.9562 31.3294 16.9178 31.2545C16.8794 31.217 16.8794 31.1796 16.841 31.1421C16.8026 31.1047 16.8026 31.0672 16.7642 31.0298V30.9923L16.7258 30.9174V30.8799C16.7258 30.8425 16.7258 30.8425 16.6874 30.805C16.6106 30.7676 16.5722 30.6926 16.5338 30.6177C16.4954 30.5428 16.4954 30.4305 16.457 30.3555C16.4186 30.2806 16.4186 30.1683 16.3802 30.0933C16.3034 29.7188 16.265 29.3442 16.265 28.9697C16.265 28.5951 16.265 28.1831 16.3418 27.8085C16.3802 27.3965 16.457 26.9845 16.5338 26.6099C16.5722 26.4226 16.6106 26.2353 16.6874 26.0481C16.7258 25.8608 16.8026 25.6735 16.841 25.4862C16.9178 25.2989 16.9562 25.1117 17.033 24.9244C17.1098 24.7371 17.1866 24.5498 17.225 24.3625C17.3786 23.988 17.5322 23.6509 17.6858 23.3138C17.8394 22.9767 18.0314 22.677 18.2234 22.3399C18.4154 22.0402 18.6074 21.7406 18.7994 21.5159C18.9914 21.2537 19.2218 21.0289 19.4138 20.8791C19.529 20.8042 19.6058 20.7293 19.721 20.6544C19.721 20.6544 19.7594 20.6544 19.7594 20.6169H19.7978H19.8362C19.8746 20.5794 19.9514 20.5794 19.9898 20.542C20.105 20.5045 20.1818 20.4671 20.297 20.4671C20.3738 20.4296 20.489 20.4296 20.5658 20.4296C20.6042 20.4296 20.6426 20.4296 20.681 20.4296C20.7194 20.4296 20.7578 20.4296 20.7962 20.4671C20.873 20.5045 20.9498 20.5045 21.0266 20.542C21.1802 20.6169 21.3338 20.7293 21.4874 20.8791C21.641 20.9915 21.7562 21.1413 21.8714 21.2911C21.9866 21.4409 22.0634 21.5533 22.1402 21.6657C22.1786 21.7406 22.217 21.778 22.2554 21.8155C22.2938 21.853 22.3322 21.9279 22.3322 21.9653C22.3706 22.0028 22.3706 22.0402 22.409 22.0777C22.4474 22.1152 22.4474 22.1526 22.4474 22.1526C22.4474 22.1901 22.4858 22.1901 22.4858 22.1901C22.5242 22.265 22.5626 22.3024 22.6394 22.3024C22.7546 22.3024 22.8698 22.2275 22.8698 22.1152C22.8698 22.1152 22.8698 22.0777 22.8698 22.0402C22.8698 22.0028 22.8698 21.9653 22.8698 21.9279C22.8698 21.8904 22.8698 21.853 22.8698 21.778C22.8698 21.7406 22.8698 21.6657 22.8698 21.5908C22.8698 21.5159 22.8698 21.4409 22.8314 21.366C22.793 21.2162 22.7546 21.0289 22.7162 20.8416C22.6394 20.6544 22.5626 20.4296 22.409 20.2049C22.3322 20.0925 22.2554 19.9801 22.1786 19.8303C22.0634 19.718 21.9866 19.6056 21.833 19.4932C21.7562 19.4183 21.6794 19.3808 21.6026 19.3434C21.5642 19.3059 21.5258 19.3059 21.4874 19.2685C21.449 19.231 21.4106 19.231 21.3722 19.1936C21.3338 19.1561 21.2954 19.1561 21.2186 19.1187C21.1802 19.0812 21.1034 19.0812 21.065 19.0812C20.9498 19.0437 20.873 19.0063 20.7578 19.0063C20.5274 18.9688 20.3354 18.9688 20.105 18.9688C19.8746 18.9688 19.6826 19.0437 19.4522 19.0812C19.337 19.1187 19.2602 19.1561 19.145 19.1936H19.1066C19.1066 19.1936 19.1066 19.1936 19.0682 19.1936H19.0298H18.9914L18.953 19.231H18.9146C18.8762 19.231 18.8762 19.2685 18.8378 19.2685C18.6458 19.3808 18.4538 19.4932 18.3002 19.6056C18.2234 19.6805 18.1466 19.7554 18.0698 19.7929C17.993 19.8678 17.9162 19.9427 17.8394 20.0176C17.7626 20.0925 17.6858 20.1674 17.609 20.2423C17.5322 20.3173 17.4554 20.3922 17.417 20.4671C17.1482 20.7667 16.9178 21.1038 16.6874 21.4784C16.457 21.8155 16.265 22.1901 16.073 22.6021C15.881 22.9767 15.7274 23.3887 15.5738 23.8007C15.5354 23.9131 15.497 23.988 15.4586 24.1003C15.4202 24.2127 15.3818 24.3251 15.3434 24.4C15.2666 24.6247 15.2282 24.812 15.1514 25.0367C14.921 25.8982 14.7674 26.7972 14.729 27.6961C14.6906 28.1456 14.6906 28.5951 14.729 29.0446C14.7674 29.2693 14.7674 29.494 14.8058 29.7188C14.9978 29.9435 15.0362 30.1683 15.113 30.393C15.1898 30.6177 15.2666 30.8425 15.3434 31.0672C15.3818 31.1796 15.4586 31.292 15.497 31.4043C15.497 31.4418 15.5354 31.4418 15.5354 31.4792L15.5738 31.5541L15.6122 31.6291V31.6665L15.6506 31.704C15.689 31.7789 15.7274 31.8163 15.7658 31.8538C15.8042 31.8913 15.8426 31.9662 15.881 32.0036C15.9578 32.116 16.0346 32.1909 16.1498 32.3033C16.2266 32.3782 16.3418 32.4906 16.457 32.5655C16.5338 32.6404 16.649 32.7153 16.7642 32.7902C16.8794 32.8651 16.9946 32.9026 17.1482 32.94C17.2634 32.9775 17.417 33.0149 17.5322 33.0149C17.801 33.0524 18.0314 33.0524 18.3002 33.0149C18.5306 32.9775 18.761 32.94 18.9914 32.8651C19.1834 32.7902 19.4138 32.7153 19.5674 32.6404C19.7594 32.5655 19.913 32.4531 20.105 32.3407C20.2586 32.2284 20.4122 32.1534 20.5658 32.0411C20.873 31.8163 21.1418 31.6291 21.4106 31.4043C21.6794 31.1796 21.9098 30.9548 22.1018 30.7676C22.3322 30.5428 22.5242 30.3555 22.7162 30.1683C23.1002 29.7937 23.4074 29.4191 23.6378 29.1569C23.8682 28.8573 24.0602 28.6326 24.1754 28.4453C24.2522 28.3704 24.2906 28.2954 24.329 28.258C24.329 28.2205 24.329 28.1831 24.329 28.1831ZM32.6618 13.4253C32.6618 13.2006 32.6234 13.0133 32.5466 12.7885C32.4698 12.5638 32.3546 12.3765 32.201 12.1892C32.1242 12.1143 32.0474 12.002 31.9706 11.927C31.9322 11.8896 31.8938 11.8521 31.8554 11.8147L31.817 11.7772H31.7786H31.7402C31.5866 11.6648 31.433 11.5899 31.2794 11.4776C31.1258 11.3652 30.9722 11.2903 30.8186 11.2528C30.473 11.1405 30.1274 11.0655 29.8202 11.0281C29.4746 10.9906 29.1674 10.9906 28.8602 11.0281C28.553 11.0655 28.2458 11.103 27.977 11.1779C27.7082 11.2528 27.4394 11.3277 27.209 11.4401C26.9786 11.5525 26.7482 11.6274 26.5178 11.7398C26.2874 11.8521 26.0954 11.9645 25.9034 12.0769C25.5194 12.3016 25.1738 12.5638 24.8666 12.7885C24.5594 13.0133 24.2906 13.2755 24.0986 13.5002C23.6378 13.9497 23.369 14.3242 23.177 14.6239C23.1002 14.7737 23.0234 14.8861 22.985 14.961C22.9466 14.9985 22.9466 15.0359 22.9466 15.0359C22.9466 15.0359 22.9466 15.0359 22.9466 15.0734C22.9082 15.1483 22.9082 15.2232 22.9466 15.2607C23.0234 15.373 23.1386 15.4105 23.2538 15.3356C23.2538 15.3356 23.2538 15.3356 23.2922 15.3356C23.2922 15.3356 23.3306 15.2981 23.369 15.2981C23.4458 15.2607 23.561 15.1857 23.7146 15.1108C23.8682 15.0359 24.0218 14.9235 24.2138 14.8112C24.4058 14.6988 24.6362 14.549 24.905 14.3992C25.1738 14.2493 25.4426 14.0995 25.7498 13.9122C26.057 13.7249 26.4026 13.5751 26.7482 13.3878C26.9402 13.3129 27.0938 13.2006 27.2858 13.1256C27.4778 13.0507 27.6698 12.9384 27.8618 12.8635C28.2458 12.7136 28.7066 12.6013 29.129 12.5263C29.5514 12.4889 29.9738 12.5263 30.3962 12.6387C30.5114 12.6762 30.5882 12.7136 30.7034 12.7511C30.7802 12.7885 30.8954 12.8635 30.9722 12.9384H31.0106L31.049 12.9758C31.0874 13.0133 31.0874 13.0133 31.1258 13.0507C31.1642 13.0882 31.2026 13.1631 31.2026 13.2006C31.241 13.2755 31.241 13.3504 31.241 13.4253C31.241 13.5002 31.241 13.6126 31.241 13.7249C31.2026 13.9497 31.1258 14.1744 31.049 14.4366C30.9338 14.6988 30.8186 14.9235 30.665 15.1857C30.5114 15.4479 30.3578 15.7101 30.2042 15.9349C30.0506 16.1971 29.8586 16.4593 29.6666 16.684C29.5898 16.7964 29.4746 16.9462 29.3594 17.0586C29.2442 17.1709 29.1674 17.3207 29.0522 17.4331C28.6298 17.9201 28.2074 18.4444 27.785 18.9314C27.3242 19.4183 26.9018 19.9427 26.4026 20.4296C26.1722 20.6918 25.9418 20.954 25.7114 21.1787C25.481 21.4409 25.2506 21.7031 25.0202 21.9653C24.905 22.1152 24.7898 22.2275 24.6746 22.3773C24.5594 22.5272 24.4442 22.677 24.329 22.8268C24.2906 22.8643 24.2906 22.9017 24.2522 22.9392C24.2138 22.9766 24.1754 23.0141 24.1754 23.089C24.1754 23.1265 24.137 23.1265 24.137 23.1639C24.137 23.2014 24.0986 23.2388 24.0986 23.2763C24.0986 23.3138 24.0602 23.3512 24.0602 23.4261V23.4636C24.0602 23.4636 24.0218 23.5385 24.0602 23.7258C24.0986 23.8381 24.137 23.9505 24.2138 23.988C24.2522 24.0254 24.2906 24.0629 24.329 24.1003C24.3674 24.1378 24.4058 24.1378 24.4058 24.1378C24.4442 24.1378 24.4442 24.1753 24.4826 24.1753C24.521 24.1753 24.5594 24.2127 24.5594 24.2127C24.5978 24.2127 24.6362 24.2502 24.6746 24.2502C24.7514 24.2502 24.7898 24.2876 24.8282 24.2876C24.9434 24.2876 25.0202 24.3251 25.097 24.3251C25.289 24.3625 25.4426 24.3625 25.6346 24.4C25.7882 24.4374 25.9802 24.4374 26.1338 24.4749C26.4794 24.5124 26.7866 24.5873 27.1322 24.6247C27.4394 24.6996 27.785 24.7746 28.0538 24.8495C28.361 24.9618 28.6298 25.0742 28.937 25.1866C29.2058 25.3364 29.4746 25.4862 29.705 25.636C29.9354 25.8233 30.1274 26.0106 30.281 26.2353C30.4346 26.4601 30.5498 26.6848 30.6266 26.947C30.7034 27.2092 30.7418 27.4714 30.7418 27.7336C30.7418 27.9958 30.7418 28.2954 30.7034 28.5576C30.7034 28.6326 30.665 28.7075 30.665 28.7449C30.665 28.7824 30.665 28.8198 30.6266 28.8573C30.6266 28.8947 30.6266 28.9322 30.5882 28.9697C30.5498 29.1195 30.5114 29.2319 30.473 29.3817C30.3194 29.9061 30.1274 30.4305 29.897 30.9174C29.6666 31.4043 29.3978 31.8538 29.129 32.2284C28.8602 32.6404 28.5146 33.0149 28.2074 33.3146C27.9002 33.6517 27.5546 33.9513 27.2474 34.2135C26.9402 34.4757 26.633 34.7005 26.3258 34.9252C26.0186 35.1499 25.7498 35.2998 25.481 35.4871C25.3658 35.562 25.2122 35.6369 25.1354 35.7118C25.0202 35.7867 24.905 35.8616 24.8282 35.9365C24.7898 35.974 24.713 36.0114 24.6746 36.0489C24.6362 36.0864 24.5594 36.1238 24.521 36.1613C24.4826 36.1987 24.4826 36.2362 24.4442 36.2736C24.4442 36.3111 24.4058 36.3111 24.4058 36.3485C24.4058 36.3485 24.4058 36.3485 24.4058 36.386V36.4235C24.4058 36.4984 24.4058 36.5733 24.4442 36.6482C24.4826 36.7231 24.521 36.7606 24.521 36.798C24.5594 36.8355 24.5978 36.8729 24.6362 36.8729C24.713 36.9104 24.7514 36.9478 24.7898 36.9478C24.8282 36.9478 24.8666 36.9853 24.905 36.9853C24.9434 36.9853 24.9434 36.9853 24.9434 36.9853C25.0202 37.0228 25.097 36.9853 25.1354 36.9104C25.1738 36.8355 25.1354 36.7606 25.0586 36.7231C25.0586 36.7231 25.0202 36.6857 24.9818 36.6482C24.9434 36.6107 24.9434 36.5733 24.905 36.5358C24.905 36.4984 24.8666 36.4984 24.8666 36.4609V36.4235C24.8666 36.4235 24.905 36.386 24.9434 36.3485C24.9818 36.3111 25.0202 36.2736 25.0586 36.2736C25.1354 36.1987 25.2506 36.1613 25.3658 36.0864C25.481 36.0114 25.5962 35.9365 25.7498 35.8616C26.2874 35.562 26.9018 35.1499 27.593 34.6256C27.9386 34.3634 28.2842 34.0637 28.6298 33.7266C28.9754 33.3895 29.321 33.0149 29.6666 32.6029C29.9738 32.1909 30.281 31.704 30.5498 31.217C30.8186 30.6926 31.049 30.1683 31.241 29.569C31.2794 29.4191 31.3178 29.2693 31.3562 29.1195C31.3562 29.082 31.3946 29.0446 31.3946 29.0071C31.3946 28.9697 31.3946 28.9322 31.433 28.8947C31.433 28.8198 31.4714 28.7449 31.4714 28.67C31.5482 28.3704 31.5866 28.0333 31.5866 27.6961C31.5866 27.359 31.5482 27.0219 31.4714 26.6474C31.433 26.4601 31.3562 26.3103 31.2794 26.123C31.2026 25.9732 31.1258 25.7859 31.0106 25.636C30.8186 25.3364 30.5498 25.0367 30.281 24.812C30.0122 24.5873 29.6666 24.3625 29.3594 24.1753C29.0522 23.988 28.7066 23.8756 28.361 23.7258C28.0154 23.6134 27.6698 23.501 27.3242 23.4261C26.9786 23.3512 26.633 23.2763 26.249 23.2014C26.057 23.1639 25.9034 23.1265 25.7114 23.1265C25.673 23.1265 25.6346 23.1265 25.5962 23.1265C25.5962 23.1265 25.5962 23.089 25.6346 23.089C25.7498 22.9767 25.865 22.8268 25.9802 22.7145C26.2106 22.4523 26.441 22.2275 26.6714 21.9653C26.9018 21.7031 27.1322 21.4784 27.401 21.2162C27.8618 20.7293 28.361 20.2423 28.8218 19.718C29.2826 19.231 29.7434 18.7066 30.1658 18.1822C30.281 18.0699 30.3962 17.9201 30.473 17.8077C30.5882 17.6953 30.7034 17.5455 30.7802 17.3957C30.9722 17.1335 31.2026 16.8713 31.3946 16.5716C31.5866 16.3094 31.7786 16.0098 31.9322 15.7101C32.0858 15.4105 32.2778 15.1108 32.393 14.8112C32.4698 14.6614 32.5082 14.4741 32.585 14.3242C32.6234 14.137 32.7002 13.9871 32.7002 13.7999C32.6618 13.8373 32.6618 13.6126 32.6618 13.4253ZM24.7514 23.1639C24.7898 23.1639 24.7898 23.1639 24.7514 23.1639V23.1639Z" fill="white" stroke="white" stroke-width="0.383635"/>
</svg>
