<svg width="20" height="21" viewBox="0 0 20 21" fill="none" xmlns="http://www.w3.org/2000/svg">
<path d="M5.60069 5.09375H4.25C3.47335 5.09375 2.84375 5.72335 2.84375 6.5V8.26736H17.1562V6.5C17.1562 5.72335 16.5267 5.09375 15.75 5.09375H14.3993V5.55556C14.3993 6.02155 14.0215 6.39931 13.5556 6.39931C13.0896 6.39931 12.7118 6.02155 12.7118 5.55556V5.09375H7.28819V5.55556C7.28819 6.02155 6.91043 6.39931 6.44444 6.39931C5.97845 6.39931 5.60069 6.02155 5.60069 5.55556V5.09375ZM7.28819 3.40625H12.7118V2C12.7118 1.53401 13.0896 1.15625 13.5556 1.15625C14.0215 1.15625 14.3993 1.53401 14.3993 2V3.40625H15.75C17.4586 3.40625 18.8438 4.79137 18.8438 6.5V16.875C18.8438 18.5836 17.4586 19.9688 15.75 19.9688H4.25C2.54137 19.9688 1.15625 18.5836 1.15625 16.875V6.5C1.15625 4.79137 2.54137 3.40625 4.25 3.40625H5.60069V2C5.60069 1.53401 5.97845 1.15625 6.44444 1.15625C6.91043 1.15625 7.28819 1.53401 7.28819 2V3.40625ZM2.84375 9.95486V16.875C2.84375 17.6517 3.47335 18.2812 4.25 18.2812H15.75C16.5267 18.2812 17.1562 17.6517 17.1562 16.875V9.95486H2.84375Z" fill="black"/>
</svg>
