<svg width="17" height="16" viewBox="0 0 17 16" fill="none" xmlns="http://www.w3.org/2000/svg">
<path d="M3.53369 6.6154C3.53369 9.84994 6.36334 12.5248 7.61582 13.5503L7.6163 13.5507C7.7959 13.6978 7.88573 13.7713 8.01959 13.809C8.12372 13.8383 8.27689 13.8383 8.38102 13.809C8.515 13.7713 8.60507 13.6976 8.78499 13.5503C10.0375 12.5248 12.867 9.84992 12.867 6.61538C12.867 5.3913 12.3754 4.21737 11.5002 3.35181C10.625 2.48626 9.43806 2 8.20039 2C6.96271 2 5.7757 2.48625 4.90053 3.35181C4.02536 4.21736 3.53369 5.39132 3.53369 6.6154Z" stroke="#1B2027" stroke-width="1.5" stroke-linejoin="round"/>
</svg>
